<svg id="Layer_1" data-name="Layer 1" xmlns="http://www.w3.org/2000/svg" viewBox="0 0 60 35"><defs><style>.cls-1{fill:#fff;}</style></defs><title>logo</title><g id="Product-page"><g id="search-page_full_button-copy-12" data-name="search-page full button-copy-12"><g id="logo"><path class="cls-1" d="M56.39,32.32A11.61,11.61,0,0,1,48.89,35h-0.4l-4.08-4.09V24.54h0a2,2,0,1,0-2.22,0v4.14h0l-2.94-2.94V19.45a2,2,0,1,0-2.22,0h0v1L35.12,18.5h0V15.34h0l-4.49-4.5h0a2,2,0,1,0-1.54,1.61l3.79,3.8V19.4h0v0h0L37,23.56v3h0v0.11L45.34,35H11.11C5,35,0,30.42,0,24.77a10.43,10.43,0,0,1,8.35-9.92c0.91-6,6.48-10.55,13.2-10.55a14.51,14.51,0,0,1,2.64.24h0A16.16,16.16,0,0,1,35.56,0c8.59,0,15.56,6.41,15.56,14.33q0,0.2,0,.41c5.07,0.95,8.9,5.08,8.9,10a9.65,9.65,0,0,1-2.07,5.95l-8.18-8.15h0V19.32h0a2,2,0,1,0-2.23.11v0.9l-3-3V14.08a2,2,0,1,0-2.39,0h0v0.87h0L38.16,11h0a2,2,0,1,0-1.92,1.49h0.24L56.39,32.32h0ZM43.33,24a1.22,1.22,0,1,0-1.23-1.22A1.22,1.22,0,0,0,43.33,24h0ZM28.67,11.7a1.22,1.22,0,1,0-1.22-1.22,1.22,1.22,0,0,0,1.22,1.22h0ZM38.13,19a1.23,1.23,0,1,0-1.22-1.23A1.22,1.22,0,0,0,38.13,19h0Zm10.45-.1a1.22,1.22,0,1,0-1.23-1.23,1.22,1.22,0,0,0,1.23,1.23h0Zm-5.25-5.2a1.22,1.22,0,1,0-1.23-1.22,1.22,1.22,0,0,0,1.23,1.22h0Zm-7-2A1.22,1.22,0,1,0,35,10.48a1.22,1.22,0,0,0,1.23,1.22h0Z"/></g></g></g></svg>