<?xml version="1.0" encoding="UTF-8" standalone="no"?>
<svg width="20px" height="20px" viewBox="0 0 20 20" version="1.1" xmlns="http://www.w3.org/2000/svg" xmlns:xlink="http://www.w3.org/1999/xlink" xmlns:sketch="http://www.bohemiancoding.com/sketch/ns">
    <!-- Generator: Sketch 3.4.4 (17249) - http://www.bohemiancoding.com/sketch -->
    <title>icon__search</title>
    <desc>Created with Sketch.</desc>
    <defs></defs>
    <g id="Product-page" stroke="none" stroke-width="1" fill="none" fill-rule="evenodd" sketch:type="MSPage">
        <g id="search-page_full_button-copy-12" sketch:type="MSArtboardGroup" transform="translate(-1185.000000, -40.000000)" fill="#F57627">
            <g id="Group" sketch:type="MSLayerGroup" transform="translate(219.000000, 22.000000)">
                <path d="M973.499514,32.6877193 C969.706734,32.6877193 966.631538,29.544386 966.631538,25.6666667 C966.631538,21.7889474 969.706734,18.645614 973.499514,18.645614 C977.29269,18.645614 980.367885,21.7889474 980.367885,25.6666667 C980.367885,29.544386 977.29269,32.6877193 973.499514,32.6877193 L973.499514,32.6877193 Z M979.413868,30.3715789 C980.404199,29.0722807 980.999029,27.4421053 980.999029,25.6666667 C980.999029,21.4338596 977.641615,18 973.499514,18 C969.357809,18 966,21.4338596 966,25.6666667 C966,29.8994737 969.357809,33.3333333 973.499514,33.3333333 C975.336895,33.3333333 977.017576,32.6554386 978.320913,31.5336842 L984.063567,37.3684211 L985.179811,36.262807 L979.413868,30.3715789 L979.413868,30.3715789 Z" id="icon__search" sketch:type="MSShapeGroup"></path>
            </g>
        </g>
    </g>
</svg>